name analog
datacolumns 19
datarows 32
range 0.161 0.1765
endheader
time	ground_force_vx	ground_force_vy	ground_force_vz	ground_force_px	ground_force_py	ground_force_pz	l_ground_force_vx	l_ground_force_vy	l_ground_force_vz	l_ground_force_px	l_ground_force_py	l_ground_force_pz	ground_torque_x	ground_torque_y	ground_torque_z	l_ground_torque_x	l_ground_torque_y	l_ground_torque_z
0.161	-0.0	-0.0	-0.0	6.2328410148620605	30.12013435363769	-398.7166137695313	14.039926528930664	-30.176490783691406	-412.1383666992188	-0.0	-0.0	-0.0	-0.0	-0.0	-0.0	89161.625	-15116.330078125	384.0033264160156
0.1615	-0.0	-0.0	-0.0	8.36191463470459	31.08893394470215	-400.4588012695313	14.862112045288086	-28.781068801879883	-413.8605651855469	-0.0	-0.0	-0.0	-0.0	-0.0	-0.0	89424.5546875	-15147.9130859375	347.3376770019531
0.162	-0.0	-0.0	-0.0	10.027562141418455	32.67490768432617	-405.3555908203125	15.891141891479492	-28.04541015625	-415.933349609375	-0.0	-0.0	-0.0	-0.0	-0.0	-0.0	89952.921875	-15052.0556640625	219.7923889160156
0.1625	-0.0	-0.0	-0.0	12.168841361999512	34.688499450683594	-408.3237915039063	16.783132553100586	-27.02643585205078	-419.0952453613281	-0.0	-0.0	-0.0	-0.0	-0.0	-0.0	90375.0390625	-15179.845703125	349.0158996582031
0.163	-0.0	-0.0	-0.0	13.75495719909668	36.020782470703125	-409.47943115234375	17.806814193725586	-26.355785369873047	-420.3963623046875	-0.0	-0.0	-0.0	-0.0	-0.0	-0.0	90870.5546875	-14902.9755859375	379.53704833984375
0.1635	-0.0	-0.0	-0.0	15.04830265045166	36.46651458740234	-409.2390747070313	18.367128372192383	-25.66148567199707	-423.7271728515625	-0.0	-0.0	-0.0	-0.0	-0.0	-0.0	91455.65625	-14982.5205078125	154.86488342285156
0.164	-0.0	-0.0	-0.0	15.931943893432615	35.9195556640625	-408.26220703125	17.7822265625	-26.143218994140625	-427.409423828125	-0.0	-0.0	-0.0	-0.0	-0.0	-0.0	92628.0625	-14839.3720703125	-185.37661743164065
0.1645	-0.0	-0.0	-0.0	17.18076515197754	34.788604736328125	-408.8724365234375	16.512409210205078	-26.737173080444336	-432.4548034667969	-0.0	-0.0	-0.0	-0.0	-0.0	-0.0	93588.640625	-14715.5966796875	-647.656494140625
0.165	-0.0	-0.0	-0.0	18.02318954467773	33.16886138916016	-412.01416015625	14.943013191223145	-27.129737854003903	-434.5971374511719	-0.0	-0.0	-0.0	-0.0	-0.0	-0.0	93771.140625	-14571.1572265625	-1352.598388671875
0.1655	-0.0	-0.0	-0.0	18.838098526000977	31.03994369506836	-412.31744384765625	12.710312843322754	-27.46804428100586	-435.2464294433594	-0.0	-0.0	-0.0	-0.0	-0.0	-0.0	93676.640625	-14136.8818359375	-1912.9349365234373
0.166	-0.0	-0.0	-0.0	18.810955047607425	29.71581268310547	-410.748291015625	11.557154655456545	-28.20132827758789	-435.489501953125	-0.0	-0.0	-0.0	-0.0	-0.0	-0.0	93915.46875	-13751.439453125	-2605.240478515625
0.1665	-0.0	-0.0	-0.0	19.24439239501953	29.38653945922852	-412.6191711425781	10.721553802490234	-29.398725509643555	-438.5895690917969	-0.0	-0.0	-0.0	-0.0	-0.0	-0.0	94702.0703125	-13697.9580078125	-2970.928466796875
0.167	-0.0	-0.0	-0.0	19.818361282348636	29.22218513488769	-414.0765075683594	9.693350791931152	-30.711036682128903	-445.8174133300781	-0.0	-0.0	-0.0	-0.0	-0.0	-0.0	95665.671875	-13444.845703125	-3365.874755859375
0.1675	-0.0	-0.0	-0.0	19.397201538085938	29.489501953125	-416.3489990234375	9.605934143066406	-32.073917388916016	-449.0114440917969	-0.0	-0.0	-0.0	-0.0	-0.0	-0.0	96459.953125	-13357.78515625	-3951.04736328125
0.168	-0.0	-0.0	-0.0	19.320539474487305	29.769554138183597	-419.3764343261719	9.606348037719728	-32.67902374267578	-451.2529602050781	-0.0	-0.0	-0.0	-0.0	-0.0	-0.0	96664.7578125	-12841.6513671875	-4179.8759765625
0.1685	-0.0	-0.0	-0.0	18.77239799499512	29.15838432312012	-422.95806884765625	8.566902160644531	-32.843055725097656	-448.7096862792969	-0.0	-0.0	-0.0	-0.0	-0.0	-0.0	96388.8359375	-12484.453125	-4578.98291015625
0.169	-0.0	-0.0	-0.0	17.994861602783203	28.41977882385254	-426.3389892578125	7.604125022888184	-32.439910888671875	-448.810302734375	-0.0	-0.0	-0.0	-0.0	-0.0	-0.0	96168.8203125	-12255.060546875	-4876.25537109375
0.1695	-0.0	-0.0	-0.0	16.707130432128906	28.559349060058597	-432.84954833984375	6.501487255096436	-33.19620895385742	-450.3048095703125	-0.0	-0.0	-0.0	-0.0	-0.0	-0.0	96578.7890625	-11700.900390625	-5538.142578125
0.17	-0.0	-0.0	-0.0	15.483838081359863	28.649614334106445	-435.0152893066406	5.39851713180542	-33.523887634277344	-453.6949462890625	-0.0	-0.0	-0.0	-0.0	-0.0	-0.0	96702.5390625	-11686.068359375	-5945.67822265625
0.1705	-0.0	-0.0	-0.0	13.967033386230469	29.31273651123047	-436.8321228027344	4.056564807891846	-33.448204040527344	-451.0597839355469	-0.0	-0.0	-0.0	-0.0	-0.0	-0.0	96800.4921875	-11279.740234375	-6256.08544921875
0.171	-0.0	-0.0	-0.0	13.203155517578123	29.9108943939209	-438.0465698242188	3.764775276184082	-33.32101058959961	-449.3070983886719	-0.0	-0.0	-0.0	-0.0	-0.0	-0.0	96019.1328125	-11120.61328125	-6540.5517578125
0.1715	-0.0	-0.0	-0.0	11.993627548217772	31.116872787475582	-438.7946166992188	3.133608341217041	-32.11274337768555	-445.9693603515625	-0.0	-0.0	-0.0	-0.0	-0.0	-0.0	95111.046875	-10649.8271484375	-6825.173828125
0.17200000000000001	-0.0	-0.0	-0.0	12.8463134765625	31.58861541748047	-441.5671997070313	4.15631628036499	-31.226778030395508	-441.7283325195313	-0.0	-0.0	-0.0	-0.0	-0.0	-0.0	94332.84375	-10402.66796875	-7051.88525390625
0.17250000000000001	-0.0	-0.0	-0.0	12.922301292419434	32.073734283447266	-439.6043395996094	4.724722385406494	-30.824268341064453	-439.9827270507813	-0.0	-0.0	-0.0	-0.0	-0.0	-0.0	93790.984375	-10108.705078125	-7128.22998046875
0.17300000000000001	-0.0	-0.0	-0.0	12.641295433044434	32.01110076904297	-440.7159118652344	5.007424831390381	-29.954200744628903	-439.2180480957031	-0.0	-0.0	-0.0	-0.0	-0.0	-0.0	93468.484375	-10257.06640625	-7102.5849609375
0.17350000000000002	-0.0	-0.0	-0.0	12.654535293579102	31.721363067626957	-436.9893798828125	5.766201019287109	-29.79082298278809	-437.9405517578125	-0.0	-0.0	-0.0	-0.0	-0.0	-0.0	93082.1875	-10049.615234375	-7202.9560546875
0.17400000000000002	-0.0	-0.0	-0.0	11.89179515838623	31.627904891967773	-437.48388671875	6.502501010894775	-29.75115966796875	-436.9981994628906	-0.0	-0.0	-0.0	-0.0	-0.0	-0.0	92795.5	-9727.033203125	-7375.9287109375
0.17450000000000002	-0.0	-0.0	-0.0	11.089051246643066	31.92214584350586	-434.6246948242188	7.172191619873047	-29.371152877807617	-435.5500793457031	-0.0	-0.0	-0.0	-0.0	-0.0	-0.0	92773.4609375	-9288.7841796875	-7404.94482421875
0.17500000000000002	-0.0	-0.0	-0.0	10.086190223693848	32.32733154296875	-434.3792114257813	7.473299503326416	-28.98287773132324	-435.8468627929688	-0.0	-0.0	-0.0	-0.0	-0.0	-0.0	92762.1953125	-9002.1376953125	-7701.23095703125
0.17550000000000002	-0.0	-0.0	-0.0	9.840339660644531	32.42988586425781	-433.5904846191406	6.713080883026123	-29.10583877563477	-435.6880798339844	-0.0	-0.0	-0.0	-0.0	-0.0	-0.0	92946.90625	-8807.9833984375	-8050.60205078125
0.176	-0.0	-0.0	-0.0	9.195022583007812	31.95690155029297	-437.1036071777344	6.714906215667725	-28.541400909423828	-437.4869995117188	-0.0	-0.0	-0.0	-0.0	-0.0	-0.0	92586.8359375	-8248.2392578125	-8452.1923828125
0.1765	-0.0	-0.0	-0.0	8.921051025390625	31.298450469970703	-441.9102478027344	5.452153205871582	-28.0656681060791	-438.6950073242188	-0.0	-0.0	-0.0	-0.0	-0.0	-0.0	92840.8515625	-7798.291015625	-8936.6748046875
